{
  "accessors": [
    {
      "bufferView": 0,
      "componentType": 5126,
      "count": 65535,
      "max": [
        1.9216504096984863,
        3.0179381370544434,
        2.4009482860565186
      ],
      "min": [
        -4.419221878051758,
        -1.702226996421814,
        -3.1911096572875977
      ],
      "type": "VEC3"
    },
    {
      "bufferView": 1,
      "componentType": 5126,
      "count": 65535,
      "max": [
        0.9921568632125854,
        0.9019607901573181,
        1.0,
        1.0
      ],
      "min": [
        0.0,
        0.0,
        0.0,
        1.0
      ],
      "type": "VEC4"
    },
    {
      "bufferView": 0,
      "byteOffset": 786420,
      "componentType": 5126,
      "count": 65535,
      "max": [
        1.6596301794052124,
        2.5460126399993896,
        2.0002236366271973
      ],
      "min": [
        -4.455544471740723,
        -1.4893368482589722,
        -3.1697468757629395
      ],
      "type": "VEC3"
    },
    {
      "bufferView": 1,
      "byteOffset": 1048560,
      "componentType": 5126,
      "count": 65535,
      "max": [
        1.0,
        0.9333333373069763,
        1.0,
        1.0
      ],
      "min": [
        0.0,
        0.0,
        0.0,
        1.0
      ],
      "type": "VEC4"
    },
    {
      "bufferView": 0,
      "byteOffset": 1572840,
      "componentType": 5126,
      "count": 65535,
      "max": [
        0.5235170125961304,
        3.982384443283081,
        1.823905348777771
      ],
      "min": [
        -3.5939507484436035,
        -1.4738768339157104,
        -3.6089212894439697
      ],
      "type": "VEC3"
    },
    {
      "bufferView": 1,
      "byteOffset": 2097120,
      "componentType": 5126,
      "count": 65535,
      "max": [
        0.9803921580314636,
        0.8745098114013672,
        0.9960784316062927,
        1.0
      ],
      "min": [
        0.0,
        0.0,
        0.0,
        1.0
      ],
      "type": "VEC4"
    },
    {
      "bufferView": 0,
      "byteOffset": 2359260,
      "componentType": 5126,
      "count": 65535,
      "max": [
        2.5995519161224365,
        1.9908069372177124,
        1.475899577140808
      ],
      "min": [
        -1.9043734073638916,
        -1.421264410018921,
        -5.053571701049805
      ],
      "type": "VEC3"
    },
    {
      "bufferView": 1,
      "byteOffset": 3145680,
      "componentType": 5126,
      "count": 65535,
      "max": [
        0.9960784316062927,
        0.9686274528503418,
        1.0,
        1.0
      ],
      "min": [
        0.0,
        0.0,
        0.0,
        1.0
      ],
      "type": "VEC4"
    },
    {
      "bufferView": 0,
      "byteOffset": 3145680,
      "componentType": 5126,
      "count": 65535,
      "max": [
        19.570539474487305,
        4.494406700134277,
        6.448153018951416
      ],
      "min": [
        -2.166975975036621,
        -4.902419090270996,
        -2.0035622119903564
      ],
      "type": "VEC3"
    },
    {
      "bufferView": 1,
      "byteOffset": 4194240,
      "componentType": 5126,
      "count": 65535,
      "max": [
        0.9764705896377563,
        0.9764705896377563,
        1.0,
        1.0
      ],
      "min": [
        0.0,
        0.0,
        0.0,
        1.0
      ],
      "type": "VEC4"
    },
    {
      "bufferView": 0,
      "byteOffset": 3932100,
      "componentType": 5126,
      "count": 65535,
      "max": [
        4.501494884490967,
        1.0860207080841064,
        1.4350934028625488
      ],
      "min": [
        -1.556395411491394,
        -1.4160456657409668,
        -2.282959222793579
      ],
      "type": "VEC3"
    },
    {
      "bufferView": 1,
      "byteOffset": 5242800,
      "componentType": 5126,
      "count": 65535,
      "max": [
        0.9254902005195618,
        0.9450980424880981,
        0.9960784316062927,
        1.0
      ],
      "min": [
        0.0,
        0.0,
        0.0,
        1.0
      ],
      "type": "VEC4"
    },
    {
      "bufferView": 0,
      "byteOffset": 4718520,
      "componentType": 5126,
      "count": 65535,
      "max": [
        19.99040412902832,
        2.0318140983581543,
        19.98604393005371
      ],
      "min": [
        -0.5941545963287354,
        -15.661870956420898,
        -2.246225595474243
      ],
      "type": "VEC3"
    },
    {
      "bufferView": 1,
      "byteOffset": 6291360,
      "componentType": 5126,
      "count": 65535,
      "max": [
        0.9803921580314636,
        0.9764705896377563,
        1.0,
        1.0
      ],
      "min": [
        0.0,
        0.0,
        0.0,
        1.0
      ],
      "type": "VEC4"
    },
    {
      "bufferView": 0,
      "byteOffset": 5504940,
      "componentType": 5126,
      "count": 65535,
      "max": [
        5.682424545288086,
        3.9647812843322754,
        5.905206680297852
      ],
      "min": [
        -3.0822346210479736,
        -2.8801493644714355,
        -10.488765716552734
      ],
      "type": "VEC3"
    },
    {
      "bufferView": 1,
      "byteOffset": 7339920,
      "componentType": 5126,
      "count": 65535,
      "max": [
        0.9960784316062927,
        0.9529411792755127,
        1.0,
        1.0
      ],
      "min": [
        0.0,
        0.0,
        0.0,
        1.0
      ],
      "type": "VEC4"
    },
    {
      "bufferView": 0,
      "byteOffset": 6291360,
      "componentType": 5126,
      "count": 65535,
      "max": [
        2.229835033416748,
        4.522968292236328,
        1.4629309177398682
      ],
      "min": [
        -1.5877491235733032,
        -2.530228614807129,
        -7.7275800704956055
      ],
      "type": "VEC3"
    },
    {
      "bufferView": 1,
      "byteOffset": 8388480,
      "componentType": 5126,
      "count": 65535,
      "max": [
        0.9921568632125854,
        0.9843137264251709,
        1.0,
        1.0
      ],
      "min": [
        0.0,
        0.0,
        0.0,
        1.0
      ],
      "type": "VEC4"
    },
    {
      "bufferView": 0,
      "byteOffset": 7077780,
      "componentType": 5126,
      "count": 65535,
      "max": [
        2.6104209423065186,
        3.8750858306884766,
        1.3736568689346313
      ],
      "min": [
        -1.8477919101715088,
        -1.3943161964416504,
        -2.639327049255371
      ],
      "type": "VEC3"
    },
    {
      "bufferView": 1,
      "byteOffset": 9437040,
      "componentType": 5126,
      "count": 65535,
      "max": [
        0.9882352948188782,
        0.9686274528503418,
        1.0,
        1.0
      ],
      "min": [
        0.0,
        0.0,
        0.0,
        1.0
      ],
      "type": "VEC4"
    },
    {
      "bufferView": 0,
      "byteOffset": 7864200,
      "componentType": 5126,
      "count": 65535,
      "max": [
        17.45676040649414,
        0.9450719952583313,
        4.3934006690979
      ],
      "min": [
        -1.7629249095916748,
        -7.545055389404297,
        -2.2094874382019043
      ],
      "type": "VEC3"
    },
    {
      "bufferView": 1,
      "byteOffset": 10485600,
      "componentType": 5126,
      "count": 65535,
      "max": [
        0.9843137264251709,
        0.9725490212440491,
        1.0,
        1.0
      ],
      "min": [
        0.0,
        0.0,
        0.0,
        1.0
      ],
      "type": "VEC4"
    },
    {
      "bufferView": 0,
      "byteOffset": 8650620,
      "componentType": 5126,
      "count": 65535,
      "max": [
        19.99546241760254,
        5.3658671379089355,
        19.558435440063477
      ],
      "min": [
        -0.9796201586723328,
        -14.463308334350586,
        -2.1325879096984863
      ],
      "type": "VEC3"
    },
    {
      "bufferView": 1,
      "byteOffset": 11534160,
      "componentType": 5126,
      "count": 65535,
      "max": [
        0.9803921580314636,
        0.9921568632125854,
        1.0,
        1.0
      ],
      "min": [
        0.07450980693101883,
        0.0,
        0.0,
        1.0
      ],
      "type": "VEC4"
    },
    {
      "bufferView": 0,
      "byteOffset": 9437040,
      "componentType": 5126,
      "count": 65535,
      "max": [
        19.93248748779297,
        6.563379287719727,
        14.908478736877441
      ],
      "min": [
        -0.493344783782959,
        -12.921440124511719,
        -2.1880264282226563
      ],
      "type": "VEC3"
    },
    {
      "bufferView": 1,
      "byteOffset": 12582720,
      "componentType": 5126,
      "count": 65535,
      "max": [
        0.9647058844566345,
        0.9882352948188782,
        1.0,
        1.0
      ],
      "min": [
        0.01568627543747425,
        0.0117647061124444,
        0.0,
        1.0
      ],
      "type": "VEC4"
    },
    {
      "bufferView": 0,
      "byteOffset": 10223460,
      "componentType": 5126,
      "count": 65535,
      "max": [
        19.97903060913086,
        3.96453857421875,
        15.28607177734375
      ],
      "min": [
        -1.3794362545013428,
        -13.22771167755127,
        -1.9634780883789063
      ],
      "type": "VEC3"
    },
    {
      "bufferView": 1,
      "byteOffset": 13631280,
      "componentType": 5126,
      "count": 65535,
      "max": [
        0.9921568632125854,
        0.9960784316062927,
        1.0,
        1.0
      ],
      "min": [
        0.0,
        0.007843137718737125,
        0.0,
        1.0
      ],
      "type": "VEC4"
    },
    {
      "bufferView": 0,
      "byteOffset": 11009880,
      "componentType": 5126,
      "count": 65535,
      "max": [
        19.944908142089844,
        4.392365455627441,
        6.582167148590088
      ],
      "min": [
        -2.0410706996917725,
        -8.175191879272461,
        -3.179142951965332
      ],
      "type": "VEC3"
    },
    {
      "bufferView": 1,
      "byteOffset": 14679840,
      "componentType": 5126,
      "count": 65535,
      "max": [
        0.9882352948188782,
        0.9960784316062927,
        1.0,
        1.0
      ],
      "min": [
        0.0,
        0.0,
        0.0,
        1.0
      ],
      "type": "VEC4"
    },
    {
      "bufferView": 0,
      "byteOffset": 11796300,
      "componentType": 5126,
      "count": 65535,
      "max": [
        1.5252277851104736,
        4.56022834777832,
        2.0021119117736816
      ],
      "min": [
        -3.174114227294922,
        -1.6004847288131714,
        -4.855236053466797
      ],
      "type": "VEC3"
    },
    {
      "bufferView": 1,
      "byteOffset": 15728400,
      "componentType": 5126,
      "count": 65535,
      "max": [
        0.9843137264251709,
        0.9372549057006836,
        1.0,
        1.0
      ],
      "min": [
        0.0,
        0.0,
        0.0,
        1.0
      ],
      "type": "VEC4"
    },
    {
      "bufferView": 0,
      "byteOffset": 12582720,
      "componentType": 5126,
      "count": 65535,
      "max": [
        1.0400317907333374,
        3.5362677574157715,
        2.2120673656463623
      ],
      "min": [
        -3.692265510559082,
        -1.6051377058029175,
        -3.521620988845825
      ],
      "type": "VEC3"
    },
    {
      "bufferView": 1,
      "byteOffset": 16776960,
      "componentType": 5126,
      "count": 65535,
      "max": [
        0.9882352948188782,
        0.929411768913269,
        1.0,
        1.0
      ],
      "min": [
        0.0,
        0.0,
        0.0,
        1.0
      ],
      "type": "VEC4"
    },
    {
      "bufferView": 0,
      "byteOffset": 13369140,
      "componentType": 5126,
      "count": 65535,
      "max": [
        1.3387892246246338,
        4.10065221786499,
        1.6864714622497559
      ],
      "min": [
        -4.473966598510742,
        -1.5366566181182861,
        -3.9999232292175293
      ],
      "type": "VEC3"
    },
    {
      "bufferView": 1,
      "byteOffset": 17825520,
      "componentType": 5126,
      "count": 65535,
      "max": [
        1.0,
        0.95686274766922,
        1.0,
        1.0
      ],
      "min": [
        0.0,
        0.0,
        0.0,
        1.0
      ],
      "type": "VEC4"
    },
    {
      "bufferView": 0,
      "byteOffset": 14155560,
      "componentType": 5126,
      "count": 65535,
      "max": [
        2.1834607124328613,
        3.5667715072631836,
        1.7286319732666016
      ],
      "min": [
        -4.461922645568848,
        -1.517176866531372,
        -3.3326945304870605
      ],
      "type": "VEC3"
    },
    {
      "bufferView": 1,
      "byteOffset": 18874080,
      "componentType": 5126,
      "count": 65535,
      "max": [
        0.9921568632125854,
        0.9529411792755127,
        1.0,
        1.0
      ],
      "min": [
        0.0,
        0.0,
        0.0,
        1.0
      ],
      "type": "VEC4"
    },
    {
      "bufferView": 0,
      "byteOffset": 14941980,
      "componentType": 5126,
      "count": 65535,
      "max": [
        2.2779650688171387,
        3.197091817855835,
        1.9367072582244873
      ],
      "min": [
        -4.767287254333496,
        -1.613365888595581,
        -2.229182720184326
      ],
      "type": "VEC3"
    },
    {
      "bufferView": 1,
      "byteOffset": 19922640,
      "componentType": 5126,
      "count": 65535,
      "max": [
        0.9921568632125854,
        0.9411764740943909,
        1.0,
        1.0
      ],
      "min": [
        0.0,
        0.0,
        0.0,
        1.0
      ],
      "type": "VEC4"
    },
    {
      "bufferView": 0,
      "byteOffset": 15728400,
      "componentType": 5126,
      "count": 65535,
      "max": [
        1.902523159980774,
        2.458014488220215,
        1.6953177452087402
      ],
      "min": [
        -3.0473952293395996,
        -1.5404548645019531,
        -4.600189208984375
      ],
      "type": "VEC3"
    },
    {
      "bufferView": 1,
      "byteOffset": 20971200,
      "componentType": 5126,
      "count": 65535,
      "max": [
        0.9921568632125854,
        0.9607843160629272,
        1.0,
        1.0
      ],
      "min": [
        0.0,
        0.0,
        0.0,
        1.0
      ],
      "type": "VEC4"
    },
    {
      "bufferView": 0,
      "byteOffset": 16514820,
      "componentType": 5126,
      "count": 65535,
      "max": [
        2.841165065765381,
        2.199972629547119,
        1.7030678987503052
      ],
      "min": [
        -1.6222375631332397,
        -3.12021541595459,
        -9.926860809326172
      ],
      "type": "VEC3"
    },
    {
      "bufferView": 1,
      "byteOffset": 22019760,
      "componentType": 5126,
      "count": 65535,
      "max": [
        1.0,
        0.9803921580314636,
        1.0,
        1.0
      ],
      "min": [
        0.0,
        0.0,
        0.0,
        1.0
      ],
      "type": "VEC4"
    },
    {
      "bufferView": 0,
      "byteOffset": 17301240,
      "componentType": 5126,
      "count": 65535,
      "max": [
        19.978261947631836,
        2.1284115314483643,
        12.42375373840332
      ],
      "min": [
        -1.603198766708374,
        -13.134881973266602,
        -2.2419285774230957
      ],
      "type": "VEC3"
    },
    {
      "bufferView": 1,
      "byteOffset": 23068320,
      "componentType": 5126,
      "count": 65535,
      "max": [
        0.9960784316062927,
        0.9764705896377563,
        1.0,
        1.0
      ],
      "min": [
        0.0,
        0.0,
        0.0,
        1.0
      ],
      "type": "VEC4"
    },
    {
      "bufferView": 0,
      "byteOffset": 18087660,
      "componentType": 5126,
      "count": 11214,
      "max": [
        3.8551383018493652,
        0.8223001956939697,
        1.911911129951477
      ],
      "min": [
        -0.6941120624542236,
        -2.0072784423828125,
        -2.02223539352417
      ],
      "type": "VEC3"
    },
    {
      "bufferView": 1,
      "byteOffset": 24116880,
      "componentType": 5126,
      "count": 11214,
      "max": [
        0.9058823585510254,
        0.8117647171020508,
        0.7960784435272217,
        1.0
      ],
      "min": [
        0.09803921729326248,
        0.0470588244497776,
        0.0,
        1.0
      ],
      "type": "VEC4"
    }
  ],
  "asset": {
    "extras": {
      "author": "zubair-irshad (https://sketchfab.com/zubairirshad)",
      "license": "CC-BY-4.0 (http://creativecommons.org/licenses/by/4.0/)",
      "source": "https://sketchfab.com/3d-models/conference-room-246a37f770ca4ef4b2ba22b2b425f97f",
      "title": "Conference room"
    },
    "generator": "Sketchfab-15.30.0",
    "version": "2.0"
  },
  "bufferViews": [
    {
      "buffer": 0,
      "byteLength": 18222228,
      "byteStride": 12,
      "name": "floatBufferViews",
      "target": 34962
    },
    {
      "buffer": 0,
      "byteLength": 24296304,
      "byteOffset": 18222228,
      "byteStride": 16,
      "name": "floatBufferViews",
      "target": 34962
    }
  ],
  "buffers": [
    {
      "byteLength": 42518532,
      "uri": "scene.bin"
    }
  ],
  "extensionsUsed": [
    "KHR_materials_unlit"
  ],
  "materials": [
    {
      "doubleSided": true,
      "extensions": {
        "KHR_materials_unlit": {}
      },
      "name": "Scene_-_Root",
      "pbrMetallicRoughness": {
        "metallicFactor": 0.0
      }
    }
  ],
  "meshes": [
    {
      "name": "Object_0",
      "primitives": [
        {
          "attributes": {
            "COLOR_0": 1,
            "POSITION": 0
          },
          "material": 0,
          "mode": 0
        }
      ]
    },
    {
      "name": "Object_1",
      "primitives": [
        {
          "attributes": {
            "COLOR_0": 3,
            "POSITION": 2
          },
          "material": 0,
          "mode": 0
        }
      ]
    },
    {
      "name": "Object_2",
      "primitives": [
        {
          "attributes": {
            "COLOR_0": 5,
            "POSITION": 4
          },
          "material": 0,
          "mode": 0
        }
      ]
    },
    {
      "name": "Object_3",
      "primitives": [
        {
          "attributes": {
            "COLOR_0": 7,
            "POSITION": 6
          },
          "material": 0,
          "mode": 0
        }
      ]
    },
    {
      "name": "Object_4",
      "primitives": [
        {
          "attributes": {
            "COLOR_0": 9,
            "POSITION": 8
          },
          "material": 0,
          "mode": 0
        }
      ]
    },
    {
      "name": "Object_5",
      "primitives": [
        {
          "attributes": {
            "COLOR_0": 11,
            "POSITION": 10
          },
          "material": 0,
          "mode": 0
        }
      ]
    },
    {
      "name": "Object_6",
      "primitives": [
        {
          "attributes": {
            "COLOR_0": 13,
            "POSITION": 12
          },
          "material": 0,
          "mode": 0
        }
      ]
    },
    {
      "name": "Object_7",
      "primitives": [
        {
          "attributes": {
            "COLOR_0": 15,
            "POSITION": 14
          },
          "material": 0,
          "mode": 0
        }
      ]
    },
    {
      "name": "Object_8",
      "primitives": [
        {
          "attributes": {
            "COLOR_0": 17,
            "POSITION": 16
          },
          "material": 0,
          "mode": 0
        }
      ]
    },
    {
      "name": "Object_9",
      "primitives": [
        {
          "attributes": {
            "COLOR_0": 19,
            "POSITION": 18
          },
          "material": 0,
          "mode": 0
        }
      ]
    },
    {
      "name": "Object_10",
      "primitives": [
        {
          "attributes": {
            "COLOR_0": 21,
            "POSITION": 20
          },
          "material": 0,
          "mode": 0
        }
      ]
    },
    {
      "name": "Object_11",
      "primitives": [
        {
          "attributes": {
            "COLOR_0": 23,
            "POSITION": 22
          },
          "material": 0,
          "mode": 0
        }
      ]
    },
    {
      "name": "Object_12",
      "primitives": [
        {
          "attributes": {
            "COLOR_0": 25,
            "POSITION": 24
          },
          "material": 0,
          "mode": 0
        }
      ]
    },
    {
      "name": "Object_13",
      "primitives": [
        {
          "attributes": {
            "COLOR_0": 27,
            "POSITION": 26
          },
          "material": 0,
          "mode": 0
        }
      ]
    },
    {
      "name": "Object_14",
      "primitives": [
        {
          "attributes": {
            "COLOR_0": 29,
            "POSITION": 28
          },
          "material": 0,
          "mode": 0
        }
      ]
    },
    {
      "name": "Object_15",
      "primitives": [
        {
          "attributes": {
            "COLOR_0": 31,
            "POSITION": 30
          },
          "material": 0,
          "mode": 0
        }
      ]
    },
    {
      "name": "Object_16",
      "primitives": [
        {
          "attributes": {
            "COLOR_0": 33,
            "POSITION": 32
          },
          "material": 0,
          "mode": 0
        }
      ]
    },
    {
      "name": "Object_17",
      "primitives": [
        {
          "attributes": {
            "COLOR_0": 35,
            "POSITION": 34
          },
          "material": 0,
          "mode": 0
        }
      ]
    },
    {
      "name": "Object_18",
      "primitives": [
        {
          "attributes": {
            "COLOR_0": 37,
            "POSITION": 36
          },
          "material": 0,
          "mode": 0
        }
      ]
    },
    {
      "name": "Object_19",
      "primitives": [
        {
          "attributes": {
            "COLOR_0": 39,
            "POSITION": 38
          },
          "material": 0,
          "mode": 0
        }
      ]
    },
    {
      "name": "Object_20",
      "primitives": [
        {
          "attributes": {
            "COLOR_0": 41,
            "POSITION": 40
          },
          "material": 0,
          "mode": 0
        }
      ]
    },
    {
      "name": "Object_21",
      "primitives": [
        {
          "attributes": {
            "COLOR_0": 43,
            "POSITION": 42
          },
          "material": 0,
          "mode": 0
        }
      ]
    },
    {
      "name": "Object_22",
      "primitives": [
        {
          "attributes": {
            "COLOR_0": 45,
            "POSITION": 44
          },
          "material": 0,
          "mode": 0
        }
      ]
    },
    {
      "name": "Object_23",
      "primitives": [
        {
          "attributes": {
            "COLOR_0": 47,
            "POSITION": 46
          },
          "material": 0,
          "mode": 0
        }
      ]
    }
  ],
  "nodes": [
    {
      "children": [
        1
      ],
      "matrix": [
        -2.220446049250313e-16,
        -6.661338147750939e-16,
        1.0,
        0.0,
        2.220446049250313e-16,
        1.0,
        6.661338147750939e-16,
        0.0,
        -1.0,
        2.2204460492503136e-16,
        -2.2204460492503126e-16,
        0.0,
        0.0,
        0.0,
        0.0,
        1.0
      ],
      "name": "Sketchfab_model"
    },
    {
      "children": [
        2,
        3,
        4,
        5,
        6,
        7,
        8,
        9,
        10,
        11,
        12,
        13,
        14,
        15,
        16,
        17,
        18,
        19,
        20,
        21,
        22,
        23,
        24,
        25
      ],
      "name": "Geode"
    },
    {
      "mesh": 0,
      "name": "Object_2"
    },
    {
      "mesh": 1,
      "name": "Object_3"
    },
    {
      "mesh": 2,
      "name": "Object_4"
    },
    {
      "mesh": 3,
      "name": "Object_5"
    },
    {
      "mesh": 4,
      "name": "Object_6"
    },
    {
      "mesh": 5,
      "name": "Object_7"
    },
    {
      "mesh": 6,
      "name": "Object_8"
    },
    {
      "mesh": 7,
      "name": "Object_9"
    },
    {
      "mesh": 8,
      "name": "Object_10"
    },
    {
      "mesh": 9,
      "name": "Object_11"
    },
    {
      "mesh": 10,
      "name": "Object_12"
    },
    {
      "mesh": 11,
      "name": "Object_13"
    },
    {
      "mesh": 12,
      "name": "Object_14"
    },
    {
      "mesh": 13,
      "name": "Object_15"
    },
    {
      "mesh": 14,
      "name": "Object_16"
    },
    {
      "mesh": 15,
      "name": "Object_17"
    },
    {
      "mesh": 16,
      "name": "Object_18"
    },
    {
      "mesh": 17,
      "name": "Object_19"
    },
    {
      "mesh": 18,
      "name": "Object_20"
    },
    {
      "mesh": 19,
      "name": "Object_21"
    },
    {
      "mesh": 20,
      "name": "Object_22"
    },
    {
      "mesh": 21,
      "name": "Object_23"
    },
    {
      "mesh": 22,
      "name": "Object_24"
    },
    {
      "mesh": 23,
      "name": "Object_25"
    }
  ],
  "scene": 0,
  "scenes": [
    {
      "name": "Sketchfab_Scene",
      "nodes": [
        0
      ]
    }
  ]
}
